<?xml version="1.0" encoding="UTF-8" standalone="no"?>
<svg
   xmlns:dc="http://purl.org/dc/elements/1.1/"
   xmlns:cc="http://creativecommons.org/ns#"
   xmlns:rdf="http://www.w3.org/1999/02/22-rdf-syntax-ns#"
   xmlns:svg="http://www.w3.org/2000/svg"
   xmlns="http://www.w3.org/2000/svg"
   xmlns:sodipodi="http://sodipodi.sourceforge.net/DTD/sodipodi-0.dtd"
   xmlns:inkscape="http://www.inkscape.org/namespaces/inkscape"
   inkscape:version="1.0 (4035a4fb49, 2020-05-01)"
   sodipodi:docname="texto.svg"
   xml:space="preserve"
   style="enable-background:new 0 0 512 512;"
   viewBox="0 0 512 512"
   y="0px"
   x="0px"
   id="Layer_1"
   version="1.1"><metadata
   id="metadata45"><rdf:RDF><cc:Work
       rdf:about=""><dc:format>image/svg+xml</dc:format><dc:type
         rdf:resource="http://purl.org/dc/dcmitype/StillImage" /></cc:Work></rdf:RDF></metadata><defs
   id="defs43" /><sodipodi:namedview
   inkscape:current-layer="Layer_1"
   inkscape:window-maximized="1"
   inkscape:window-y="-11"
   inkscape:window-x="-11"
   inkscape:cy="256"
   inkscape:cx="256"
   inkscape:zoom="1.7148438"
   showgrid="false"
   id="namedview41"
   inkscape:window-height="1046"
   inkscape:window-width="1920"
   inkscape:pageshadow="2"
   inkscape:pageopacity="0"
   guidetolerance="10"
   gridtolerance="10"
   objecttolerance="10"
   borderopacity="1"
   bordercolor="#666666"
   pagecolor="#ffffff" />
<g
   id="g6">
	<polygon
   id="polygon2"
   points="91.428,144.74 0,144.74 0,124.137 70.825,124.137 70.825,70.825 182.472,70.825    182.472,91.428 91.428,91.428  "
   style="fill:#242D3C;" />
	<polygon
   id="polygon4"
   points="355.026,512 156.974,512 156.974,491.397 334.423,491.397 334.423,403.057 281.111,403.057    281.111,70.825 403.057,70.825 403.057,124.137 491.397,124.137 491.397,0 512,0 512,144.74 382.454,144.74 382.454,91.428    301.714,91.428 301.714,382.454 355.026,382.454  "
   style="fill:#242D3C;" />
</g>
<polygon
   id="polygon8"
   points="0,0 0,106.624 53.312,106.624 53.312,53.312 210.286,53.312 210.286,420.572   156.974,420.572 156.974,473.882 316.91,473.882 316.91,420.572 263.598,420.572 263.598,53.312 420.572,53.312 420.572,106.624   473.882,106.624 473.882,0 "
   style="fill:#ff2a2a" />
<g
   id="g10">
</g>
<g
   id="g12">
</g>
<g
   id="g14">
</g>
<g
   id="g16">
</g>
<g
   id="g18">
</g>
<g
   id="g20">
</g>
<g
   id="g22">
</g>
<g
   id="g24">
</g>
<g
   id="g26">
</g>
<g
   id="g28">
</g>
<g
   id="g30">
</g>
<g
   id="g32">
</g>
<g
   id="g34">
</g>
<g
   id="g36">
</g>
<g
   id="g38">
</g>
</svg>
