<?xml version="1.0" encoding="UTF-8" standalone="no"?>
<svg
   xmlns:dc="http://purl.org/dc/elements/1.1/"
   xmlns:cc="http://creativecommons.org/ns#"
   xmlns:rdf="http://www.w3.org/1999/02/22-rdf-syntax-ns#"
   xmlns:svg="http://www.w3.org/2000/svg"
   xmlns="http://www.w3.org/2000/svg"
   xmlns:sodipodi="http://sodipodi.sourceforge.net/DTD/sodipodi-0.dtd"
   xmlns:inkscape="http://www.inkscape.org/namespaces/inkscape"
   inkscape:version="1.0 (4035a4fb49, 2020-05-01)"
   sodipodi:docname="video.svg"
   xml:space="preserve"
   style="enable-background:new 0 0 456.339 456.339;"
   viewBox="0 0 456.339 456.339"
   y="0px"
   x="0px"
   id="Capa_1"
   version="1.1"><metadata
   id="metadata43"><rdf:RDF><cc:Work
       rdf:about=""><dc:format>image/svg+xml</dc:format><dc:type
         rdf:resource="http://purl.org/dc/dcmitype/StillImage" /></cc:Work></rdf:RDF></metadata><defs
   id="defs41" /><sodipodi:namedview
   inkscape:current-layer="Capa_1"
   inkscape:window-maximized="1"
   inkscape:window-y="-11"
   inkscape:window-x="-11"
   inkscape:cy="264.36719"
   inkscape:cx="195.66119"
   inkscape:zoom="1.3604793"
   showgrid="false"
   id="namedview39"
   inkscape:window-height="1046"
   inkscape:window-width="1920"
   inkscape:pageshadow="2"
   inkscape:pageopacity="0"
   guidetolerance="10"
   gridtolerance="10"
   objecttolerance="10"
   borderopacity="1"
   bordercolor="#666666"
   pagecolor="#ffffff" />
<path
   id="path868"
   d="m 199.58334,140.85178 -1.0395,178.79341 109.66689,-94.07444 z"
   style="fill:#ff0000;stroke:#000000;stroke-width:1px;stroke-linecap:butt;stroke-linejoin:miter;stroke-opacity:1" /><g
   id="g6">
	<path
   id="path2"
   d="M195.155,337.833c-1.93,0-3.875-0.42-5.693-1.266c-4.717-2.21-7.732-6.952-7.732-12.162v-192.47   c0-5.21,3.014-9.952,7.732-12.162c4.714-2.21,10.295-1.49,14.292,1.846l115.482,96.235c3.063,2.553,4.833,6.329,4.833,10.316   c0,3.986-1.769,7.763-4.833,10.316l-115.482,96.235C201.296,336.77,198.24,337.833,195.155,337.833z M208.587,160.603v135.134   l81.079-67.567L208.587,160.603z" />
	<path
   id="path4"
   d="M227.771,456.336c-38.232,0.007-76.687-9.533-111.516-29.143c-6.462-3.637-8.753-11.827-5.112-18.289   c3.633-6.462,11.823-8.756,18.289-5.112c78.345,44.103,177.517,30.465,241.161-33.2c78.533-78.534,78.533-206.31,0-284.844   c-78.534-78.547-206.321-78.54-284.851,0c-78.53,78.534-78.53,206.31,0,284.844c5.245,5.245,5.245,13.75,0,18.995   c-5.238,5.245-13.743,5.245-18.988,0c-89.003-89.01-89.003-233.824,0-322.834c89.007-88.996,233.817-89.003,322.834,0   c89.003,89.01,89.003,233.824,0,322.834C345.743,433.431,287.022,456.336,227.771,456.336z" />
</g>
<g
   id="g8">
</g>
<g
   id="g10">
</g>
<g
   id="g12">
</g>
<g
   id="g14">
</g>
<g
   id="g16">
</g>
<g
   id="g18">
</g>
<g
   id="g20">
</g>
<g
   id="g22">
</g>
<g
   id="g24">
</g>
<g
   id="g26">
</g>
<g
   id="g28">
</g>
<g
   id="g30">
</g>
<g
   id="g32">
</g>
<g
   id="g34">
</g>
<g
   id="g36">
</g>
</svg>
